<svg width="227" height="100" viewBox="0 0 227 100" fill="none" xmlns="http://www.w3.org/2000/svg">
<g clip-path="url(#clip0_1_58)">
<path fill-rule="evenodd" clip-rule="evenodd" d="M0 59.3404C0 63.5307 0.162206 66.2612 1.16248 70.2622C1.78427 72.7494 2.6764 75.0473 3.7037 77.3452C4.43363 78.9673 5.3528 80.4542 6.24493 81.9681C7.56961 84.2119 9.32685 86.0503 10.9759 87.9968C11.5166 88.6456 12.2466 89.1592 12.8143 89.754C13.2198 90.1865 13.6253 90.4839 14.0849 90.8624C14.3282 91.0787 14.4363 91.1868 14.7067 91.4031L16.7883 92.944C19.1403 94.6742 20.5191 95.242 22.8981 96.4585C23.9254 96.9722 25.1419 97.4588 26.2774 97.8372C30.0622 99.1619 34.1173 99.8919 38.2265 100H40.4704C44.1471 99.8919 47.7967 99.2971 51.203 98.1346L55.0419 96.6748C58.286 95.269 62.179 92.89 64.7472 90.4839C65.6664 89.6188 66.6126 88.8348 67.4777 87.9156C67.9102 87.4561 68.2887 86.9154 68.7753 86.4828C69.0998 87.0776 71.9113 89.6729 72.479 90.1054C75.2365 92.3493 78.4536 94.5661 81.7789 95.9178L85.4285 97.2966C86.1043 97.5128 86.6991 97.675 87.402 97.8913L90.4298 98.5672C90.8624 98.6212 91.2409 98.7023 91.5923 98.7294C100.135 100 108.894 98.0806 116.275 93.701C116.734 93.4307 117.059 93.1873 117.518 92.917C118.356 92.4304 119.113 91.8086 119.897 91.2409C120.303 90.9435 120.654 90.6732 121.006 90.3217C121.222 90.1325 121.33 90.0784 121.546 89.8892L123.195 88.3752L123.331 88.2401L123.385 88.186L123.871 87.6994C124.25 87.2668 124.763 86.8613 125.115 86.4017C125.98 85.2393 126.71 84.4823 127.818 82.9954C128.116 82.5899 128.359 82.2114 128.629 81.7789C129.17 80.9678 129.711 80.1298 130.143 79.2376C130.387 78.724 130.603 78.3996 130.846 77.9129C131.684 76.2639 133.469 72.2087 133.604 70.5326C134.117 71.1273 134.82 72.7224 135.199 73.4252C135.739 74.3985 136.172 75.4258 136.767 76.372L143.012 88.1319C143.201 88.5374 143.363 88.7267 143.552 89.1052C144.282 90.565 145.31 92.7007 146.229 93.9173C147.121 95.1068 148.094 95.9719 149.392 96.7559C153.041 98.9457 157.935 98.5672 161.233 95.9719C161.557 95.7286 161.8 95.5123 162.071 95.242C162.612 94.7013 163.152 94.1335 163.558 93.4577C164.504 91.9167 165.585 89.5377 166.369 88.2401C166.586 87.8616 166.721 87.5912 166.91 87.2128L169.695 81.9681C169.911 81.5355 170.1 81.2652 170.289 80.8867C171.506 78.4266 172.912 75.9935 174.182 73.5604L175.912 70.3433C177.426 67.5588 178.832 64.7202 180.4 61.9357L183.752 55.5826C183.969 55.2041 184.104 54.9608 184.32 54.5553C184.536 54.1227 184.699 53.9065 184.915 53.4739L186.05 51.3382C186.267 50.9868 186.402 50.6623 186.591 50.2839L192.755 38.7132C194.674 35.2257 194.512 31.1706 192.511 27.7913C192.295 27.4128 192.133 27.2506 191.89 26.8992L191.025 25.9259C190.889 25.7908 190.971 25.8719 190.835 25.7637L189.619 24.7634C188.7 24.0606 187.699 23.655 186.591 23.3036C185.077 22.7899 183.104 22.7359 181.427 23.0603C179.021 23.5469 177.372 24.6553 175.75 26.2233C175.318 26.6559 174.75 27.4128 174.453 27.9265L172.939 30.8191C172.776 31.1436 172.587 31.4409 172.425 31.7924C172.101 32.4412 171.776 33.1171 171.425 33.7929L159.394 57.2587C159.232 57.5831 159.043 57.9075 158.881 58.232L157.908 60.1514C157.799 60.3406 157.772 60.4217 157.664 60.611C157.583 60.7732 157.61 60.7191 157.556 60.8543C157.475 60.9895 157.502 60.9895 157.421 61.1517C156.475 62.8278 155.583 64.4498 155.123 66.3423L154.88 67.1533C154.88 67.1803 154.853 67.2614 154.826 67.2885C154.745 67.4777 154.799 67.3696 154.745 67.4507C154.501 66.3693 154.204 65.1798 153.69 64.1795C153.528 63.8551 153.366 63.5307 153.177 63.1792L135.685 29.116C135.577 28.9267 135.55 28.8727 135.442 28.6564C133.982 25.7367 130.738 23.2495 127.17 22.871C126.791 22.844 126.061 22.7359 125.764 22.7629C121.79 23.0873 118.464 24.8716 116.599 28.359C115.22 30.9273 115.004 33.7118 115.788 36.5234C116.302 38.3888 118.032 41.0922 118.978 42.9576C119.167 43.336 119.33 43.6064 119.546 43.9849L123.466 51.3652H103.947C101.027 51.3652 98.3779 51.5815 96.3774 53.582C95.4853 54.4742 94.8364 55.1771 94.2687 56.3396C91.8897 61.0706 93.9984 67.1533 98.9727 69.0457C100.946 69.8026 102.812 69.6404 105.434 69.6404H112.598C112.274 70.2352 111.787 70.884 111.354 71.3977C109.57 73.4523 108.975 74.1011 106.542 75.6691C106.353 75.8043 106.299 75.8313 106.11 75.9394C105.921 76.0205 105.812 76.1016 105.596 76.2098C101 78.5618 94.4309 78.9403 89.8351 76.6153C88.4293 75.9124 87.1046 75.1284 85.9421 74.0741C84.7797 73.0468 83.7794 71.8843 82.8602 70.6137C82.5629 70.1811 82.3195 69.7486 82.0492 69.289C79.535 64.9094 78.9673 59.1241 80.5893 54.312C80.8597 53.528 81.103 52.8251 81.4274 52.1492L83.1306 49.2566C83.9416 48.067 84.9689 47.0397 86.0503 46.0935C87.429 44.85 89.0511 43.9308 90.7813 43.2279C94.5391 41.714 95.3501 42.7413 98.8916 39.1727C99.4052 38.6591 99.7837 37.9832 100.162 37.3614C101.73 34.7932 101.919 30.738 100.622 28.0346C100.081 26.8992 99.4052 25.8719 98.5401 24.9797L98.2157 24.6823C97.4858 24.0335 96.7559 23.4117 95.8637 22.9792C91.4571 20.7624 86.0773 22.5196 81.887 24.3039L78.2374 26.1422C75.8583 27.575 74.047 28.8186 71.9113 30.684C71.0192 31.4409 69.8297 32.4953 69.1538 33.3874L68.3969 34.2255C66.964 35.9286 65.6394 37.6588 64.4769 39.5783C63.9092 40.5245 63.4496 41.3355 62.9359 42.3628C60.3136 47.5804 58.7186 53.2306 58.7186 60.0433C58.7186 61.9627 58.8537 63.801 59.0971 65.5853C59.1241 65.7745 59.2593 66.4504 59.2593 66.6667C59.2322 67.1533 58.4753 68.0725 58.1779 68.505L54.339 73.0468L52.7169 74.4255C52.5007 74.5877 52.3114 74.7499 52.0681 74.9392C51.7978 75.1284 51.6085 75.2365 51.3382 75.4528C48.6618 77.3993 44.093 79.1295 40.6056 79.1295C39.5512 79.1295 38.3888 79.2106 37.3074 79.0754C36.8748 79.0214 36.6315 78.9943 36.199 78.9403C35.0095 78.751 33.4955 78.3185 32.4682 77.8859C28.1427 76.1016 24.6553 72.8575 22.6277 68.6672C19.8432 62.8548 20.3298 56.1773 23.601 50.6894C25.1149 48.1481 27.3317 46.0395 29.8729 44.4985L32.279 43.282L34.9554 42.4169C35.8746 42.1465 36.9289 42.0384 37.9562 41.9032C40.7137 41.4977 42.7683 41.714 45.0662 40.0919C45.2284 39.9838 45.3906 39.8486 45.5799 39.7134C47.7697 37.9292 49.581 35.1987 49.581 32.0627C49.581 29.7107 49.2836 28.0076 48.1752 26.1422C48.013 25.8719 47.9048 25.6556 47.6886 25.3852C46.5261 23.8443 45.3366 22.817 43.5253 21.9519C39.5783 20.0324 33.0089 21.4112 29.3052 22.2763L26.5477 23.1144C25.8989 23.3306 25.4123 23.5199 24.8175 23.7632C24.2228 24.0065 23.6821 24.2498 23.0873 24.4931C20.9246 25.3852 18.87 26.7099 16.9505 27.9805C15.0311 29.2511 13.3009 30.7921 11.6788 32.4142C10.8408 33.2522 10.1108 33.9551 9.38091 34.8743C7.56961 37.1181 5.83942 39.4431 4.54177 42.0384C4.37956 42.3628 4.24439 42.552 4.10922 42.8494C3.94701 43.2009 3.86591 43.3901 3.73074 43.6875L2.32495 47.0668C0.919167 50.7975 0.0270343 55.2041 0.0270343 59.3404H0ZM213.247 24.1146L213.274 23.9254C212.814 23.8172 212.247 23.5739 211.814 23.4117C209.949 22.7088 210.624 22.7088 208.813 23.3847C208.354 23.5469 207.705 23.7361 207.326 23.9254V21.3571L203.352 19.1403L203.082 19.1133C202.082 19.5729 198.838 20.6272 198.189 20.9786C194.999 22.7629 197.134 27.9265 200.946 26.3855L205.893 24.5472C206.218 24.439 206.867 24.1146 207.218 24.0876C207.218 25.2501 207.083 28.4401 207.272 29.3323C207.732 31.522 210.354 32.5223 212.192 31.0624C212.679 30.684 213.085 30.0622 213.247 29.3593C213.382 28.7375 213.49 24.6823 213.247 24.0606V24.1146Z" fill="white"/>
<path fill-rule="evenodd" clip-rule="evenodd" d="M210.273 10.5164V10.8678L211.841 15.2744C212.247 15.2474 214.707 13.7875 215.247 13.4631C215.518 13.3009 215.518 13.1117 215.626 13.382C215.815 13.0846 215.572 13.2468 215.869 12.9765L218.762 4.73101C219.005 4.02812 219.167 3.81184 219.14 2.91971C219.14 1.32468 217.951 0.216275 216.599 0H215.653C215.058 0.108137 214.49 0.378481 214.004 0.865099C213.517 1.35172 213.463 1.54096 213.193 2.24385L210.273 10.5164Z" fill="white"/>
<path fill-rule="evenodd" clip-rule="evenodd" d="M204.704 13.0305L204.866 13.2739L207.705 14.8418C208.056 15.0581 208.354 15.1663 208.651 15.3825L210.246 10.8678V10.5164L207.921 3.89294C207.434 2.51419 207.056 0.459584 205.137 0.0540687C205.055 0.0270343 204.947 0.0270343 204.866 0H203.947C202.595 0.18924 201.46 1.21654 201.352 2.86564C201.298 3.73074 202.001 5.46094 202.325 6.299C202.757 7.43444 203.082 8.54285 203.487 9.62422C203.704 10.1649 203.866 10.7056 204.055 11.2463C204.163 11.5707 204.217 11.787 204.353 12.1114C204.488 12.4628 204.569 12.625 204.65 13.0035L204.704 13.0305ZM215.896 12.9765C215.599 13.2468 215.842 13.0846 215.653 13.382L214.058 17.9238L217.248 19.1133H217.518L224.115 15.3285C225.277 14.6796 226.98 13.8145 226.494 11.5166C226.115 9.78643 224.358 8.84023 222.709 9.24574C222.114 9.40795 218.194 11.7329 217.302 12.2195C216.815 12.4899 216.41 12.7602 215.923 12.9765H215.896Z" fill="white"/>
<path fill-rule="evenodd" clip-rule="evenodd" d="M203.109 19.1403L203.379 19.1673C203.704 18.897 206.083 18.1671 206.569 17.9238C206.407 17.5723 206.299 17.1398 206.164 16.7613L205.326 14.4093C205.218 14.0579 205.055 13.5712 204.893 13.2468L204.731 13.0035L200.73 10.7056C200.378 10.5164 198.405 9.35388 198.026 9.24575C197.54 9.11057 196.594 9.11057 196.107 9.29981C195.188 9.62423 194.269 10.5434 194.134 11.5707C193.755 14.3282 195.837 14.8959 197.81 16.0854L201.811 18.3563C202.109 18.5185 202.947 18.9511 203.136 19.1133L203.109 19.1403ZM213.274 23.9254L213.247 24.1146C213.652 24.1417 215.355 24.8175 215.815 25.0068C216.221 25.169 216.599 25.3041 217.032 25.4663L219.519 26.4125C220.925 26.9803 222.303 26.7099 223.222 25.5474C224.439 24.0065 223.871 21.8167 222.357 21.0057C221.979 20.8164 221.573 20.6813 221.141 20.5191L217.464 19.1133H217.194L213.22 21.3571L213.247 23.9254H213.274Z" fill="white"/>
</g>
<defs>
<clipPath id="clip0_1_58">
<rect width="226.579" height="100" fill="white"/>
</clipPath>
</defs>
</svg>
