<svg width="201" height="100" viewBox="0 0 201 100" fill="none" xmlns="http://www.w3.org/2000/svg">
<g clip-path="url(#clip0_1_77)">
<path d="M200 87.5088C199.929 87.3677 199.859 87.2971 199.718 87.2265L168.031 69.3013C167.608 69.0896 167.608 68.7368 168.031 68.4545L185.109 58.2922C185.533 58.0804 185.815 57.5864 185.815 57.0924V13.4086C185.815 12.9146 185.533 12.4912 185.039 12.35L152.929 0.141138C152.435 -0.0705766 151.941 -4.97419e-06 151.447 0.21171L116.161 19.266C115.737 19.4778 115.455 19.9718 115.455 20.4658L115.526 66.7608C115.455 67.2548 115.808 67.7488 116.302 67.8899L148.694 80.2399C149.188 80.4517 149.682 80.6634 150.106 81.0162L178.476 99.8589C178.899 100.141 179.393 100.141 179.817 99.9294L199.718 88.0734C200 87.9323 200.071 87.7205 200 87.5088ZM161.962 66.9725C161.821 66.9725 161.68 66.9725 161.609 66.9019L139.732 58.5745C139.238 58.4333 138.956 58.0099 138.956 57.5159V15.9492C138.885 15.6669 139.097 15.4552 139.308 15.3846C139.45 15.3846 139.591 15.3846 139.661 15.4552L161.609 23.7826C162.103 23.9238 162.385 24.3472 162.385 24.8412V66.4079C162.456 66.6902 162.244 66.9725 161.962 66.9725ZM4.37544 31.8278C1.482 34.5801 0 38.0381 0 42.2018C0 46.3656 1.482 49.8236 4.37544 52.5759C7.26888 55.3282 11.0092 56.7396 15.5258 56.7396C19.3366 56.7396 22.3712 55.9633 24.5589 54.4813V50.247C22.0183 52.2936 18.9838 53.3521 15.4552 53.3521C12.2795 53.3521 9.66831 52.2936 7.69231 50.1764C5.64573 48.0593 4.65773 45.3776 4.65773 42.2724C4.65773 39.0967 5.64573 36.4855 7.69231 34.3684C9.73888 32.2512 12.2795 31.1927 15.4552 31.1927C18.9838 31.1927 22.0183 32.2512 24.5589 34.2978V29.9929C22.3006 28.5109 19.2661 27.8052 15.5258 27.8052C11.0092 27.7346 7.26888 29.0755 4.37544 31.8278ZM30.5575 28.7932C31.4044 29.0755 31.969 29.7812 32.2512 30.7692C32.463 31.4749 32.5335 32.7452 32.5335 34.5095V56.1044H36.8384V28.2992H30.5575V28.7932ZM68.0311 49.4707L50.1764 28.2992H44.6718V28.7227C45.5187 29.0755 46.0833 29.7107 46.3656 30.7692C46.5773 31.4749 46.6478 32.7452 46.6478 34.5095V56.1044H50.3881V34.7918L68.1722 56.1044H71.7713V28.2992H68.0311V49.4707ZM85.3917 43.6133H97.036V40.4375H85.3917V31.6161H97.4594V28.2992H79.1108V28.7227C79.9577 29.0755 80.5222 29.7107 80.8045 30.7692C81.0162 31.4749 81.0868 32.7452 81.0868 34.5095V56.1044H97.8829V52.7876H85.3917V43.6133Z" fill="white"/>
</g>
<defs>
<clipPath id="clip0_1_77">
<rect width="200.071" height="100" fill="white"/>
</clipPath>
</defs>
</svg>
