<svg width="345" height="100" viewBox="0 0 345 100" fill="none" xmlns="http://www.w3.org/2000/svg">
<g clip-path="url(#clip0_1_71)">
<path d="M70.9127 89.5018C60.1268 100.278 42.4762 100.278 31.69 89.5018L11.7632 69.5933C0.976213 58.8175 0.976213 41.1825 11.7621 30.4067L31.6896 10.4981C42.4762 -0.277699 60.1264 -0.277699 70.9123 10.4981L90.8398 30.4067C101.626 41.1825 101.626 58.8175 90.8398 69.5933L70.9127 89.5018Z" fill="white"/>
<path d="M39.4825 79.2439C38.7225 79.2462 37.9913 78.9535 37.4428 78.4275C36.8942 77.9015 36.5712 77.1832 36.5416 76.4238C36.5247 76.0373 36.5845 75.6514 36.7176 75.2882C36.8507 74.925 37.0545 74.5918 37.3171 74.3078C37.5785 74.022 37.894 73.7911 38.2454 73.6283C38.5967 73.4655 38.977 73.3741 39.3639 73.3595C40.9851 73.2822 42.3624 74.5546 42.4312 76.1792C42.4978 77.8011 41.2312 79.1743 39.6082 79.2409C39.5663 79.243 39.5244 79.244 39.4825 79.2439ZM50.2048 24.9004C48.5877 24.9004 47.2929 25.4059 46.2453 26.4453C43.9862 28.6896 42.8 33.3208 42.9059 39.4855C43.0331 47.0859 44.845 61.9974 50.8282 69.6755C51.7981 70.9186 52.8413 71.9119 53.9286 72.6286C54.9821 73.3249 56.1643 74.0045 58.0104 74.0045C58.51 74.0045 59.0483 73.9535 59.6093 73.8532C63.0413 73.0305 67.3387 69.2149 70.5349 64.1372C70.7724 63.7577 71.1027 63.4451 71.4946 63.2288C71.8865 63.0125 72.3271 62.8997 72.7747 62.9011C73.2714 62.9012 73.7579 63.0418 74.1781 63.3067C74.4725 63.4907 74.7275 63.7311 74.9285 64.0143C75.1294 64.2974 75.2722 64.6175 75.3487 64.9561C75.427 65.294 75.4374 65.6441 75.3791 65.986C75.3208 66.3279 75.1951 66.6547 75.0093 66.9476C70.9669 73.3703 65.6301 77.8803 60.7335 79.0119C60.6934 79.0239 60.6525 79.0329 60.6112 79.039C59.713 79.2033 58.8301 79.2874 57.99 79.2874C54.8316 79.2874 52.6037 78.0855 51.016 77.0379C49.4465 76.0007 47.981 74.616 46.6587 72.9227C38.2346 62.1138 37.6584 41.8517 37.6201 39.5766C37.5294 34.1844 38.3059 26.8788 42.5219 22.6981C44.5792 20.6591 47.1569 19.6253 50.1833 19.6253L50.6743 19.6256C53.7085 19.6256 56.2896 20.6595 58.3461 22.6985C62.5617 26.8792 63.3387 34.1848 63.2479 39.5769C63.1524 45.1952 62.1212 56.0766 56.2911 65.8335C56.0548 66.225 55.7216 66.549 55.3236 66.7742C54.9256 66.9995 54.4763 67.1183 54.019 67.1193C53.5428 67.1195 53.0755 66.9905 52.6669 66.7461C51.4178 66.0011 51.0071 64.3766 51.7517 63.1249C55.8327 56.2978 57.8059 48.7866 57.9613 39.4866C58.0665 33.3197 56.8803 28.6885 54.6212 26.4461C53.5743 25.4063 52.2818 24.9011 50.6691 24.9011L50.2048 24.9004Z" fill="#E60012"/>
<path d="M158.565 51.0654V53.9632H118.759V51.0654H135.696V47.0788H126.322C124.691 47.0788 123.288 45.8119 123.288 44.0911V37.1621H148.988V33.132H123.288V30.2331H154.74V40.1056H129.13V42.8688C129.13 43.774 129.446 44.0911 130.262 44.0911H155.283V47.0788H141.583V51.0654H158.565ZM156.572 67.9108L154.896 70.4461C151.5 70.129 143.439 67.5929 138.638 62.2948C133.839 67.5929 125.914 70.129 122.381 70.4461L120.706 67.9108C124.103 67.4119 133.522 63.1546 135.47 56.6346H141.808C143.755 63.1546 153.176 67.4569 156.572 67.9108ZM182.956 56.9833C185.222 56.9833 186.488 57.029 187.486 56.1691V47.1569H179.199V44.1691H187.486V29.5539H193.237V70.0398H187.486V59.2937C186.671 59.7461 185.222 60.0186 182.956 60.0186H171.139C168.783 60.0186 167.243 58.2517 167.243 56.1691V32.9825H183.727V36.0178H173.041V55.4903C173.041 56.3959 173.357 56.9836 174.445 56.9836L182.956 56.9833ZM197.267 29.5539H203.018V70.0375H197.267V29.5539ZM225.383 39.5624C225.383 47.7137 231.087 54.552 236.115 56.9063L233.849 59.1706C231.087 58.4457 225.563 54.4156 222.528 49.3888C219.675 54.4613 214.151 58.4011 211.208 59.1249L208.988 56.9063C214.15 54.6424 219.223 47.9844 219.223 39.6082V30.6874H225.383V39.5624H225.383ZM240.054 29.5539H246.03V70.0375H240.054V29.5539ZM271.061 54.8688C273.37 54.8688 274.548 54.9134 275.59 54.0535V44.2268H267.801V41.2372H275.59V29.5539H281.387V70.0398H275.59V57.0424C274.73 57.5401 273.37 57.7662 271.061 57.7662H258.337C256.526 57.7662 255.393 56.5439 255.393 54.9134V31.1387H261.279V53.374C261.279 54.2795 261.688 54.8688 262.728 54.8688H271.061ZM285.326 29.5539H291.076V70.0375H285.326V29.5539ZM302.453 58.6264C300.054 58.6264 298.784 57.1792 298.784 54.9598V31.0491H319.933V58.6264H302.453ZM305.668 55.6383H314.183V34.0379H304.627V54.5966C304.627 55.2758 304.898 55.6383 305.668 55.6383ZM332.431 42.3253H339.134V45.2684H332.431V70.0398H326.544V29.5539H332.431V42.3253Z" fill="white"/>
</g>
<defs>
<clipPath id="clip0_1_71">
<rect width="344.61" height="100" fill="white"/>
</clipPath>
</defs>
</svg>
