<svg width="492" height="100" viewBox="0 0 492 100" fill="none" xmlns="http://www.w3.org/2000/svg">
<g clip-path="url(#clip0_1_64)">
<path d="M0 0V100H64.9913V0H0ZM52.8596 74.1768C52.8596 74.5234 52.513 74.87 52.1664 74.87H42.8076C42.461 74.87 42.1144 74.5234 42.1144 74.1768V45.234L35.8752 63.4315C35.7019 63.7782 35.5286 63.9515 35.182 63.9515H29.4627C29.1161 63.9515 28.9428 63.7782 28.7695 63.4315L22.5303 45.234V74.1768C22.5303 74.5234 22.1837 74.87 21.8371 74.87H12.6516C12.305 74.87 11.9584 74.5234 11.9584 74.1768V25.9965C11.9584 25.6499 12.305 25.3033 12.6516 25.3033H22.7036C23.0503 25.3033 23.2236 25.4766 23.3969 25.8232L32.5823 50.9532L41.5945 25.8232C41.7678 25.4766 41.9411 25.3033 42.2877 25.3033H52.3397C52.6863 25.3033 53.0329 25.6499 53.0329 25.9965V74.1768H52.8596ZM213.172 0V100H278.163V0H213.172ZM261.872 74.1768C261.872 74.5234 261.525 74.87 261.178 74.87H251.646C251.3 74.87 250.953 74.5234 250.953 74.1768V64.9913H240.035V74.1768C240.035 74.5234 239.688 74.87 239.341 74.87H229.809C229.463 74.87 229.116 74.5234 229.116 74.1768V59.9653L238.128 25.9965C238.128 25.6499 238.475 25.4766 238.821 25.4766H252.166C252.513 25.4766 252.686 25.6499 252.86 25.9965L261.872 59.9653V74.1768Z" fill="white"/>
<path d="M241.075 55.4593H250.087L245.581 34.1421L241.075 55.4593ZM319.931 54.5927H311.958V65.338H319.931C320.797 65.338 321.49 64.6447 321.49 63.7782V56.1525C321.317 55.286 320.797 54.5927 319.931 54.5927Z" fill="white"/>
<path d="M284.229 0V100H349.22V0H284.229ZM332.236 64.9913C332.236 70.364 327.903 74.6967 322.53 74.6967H301.906C301.56 74.6967 301.213 74.3501 301.213 74.0035V25.9965C301.213 25.6499 301.56 25.3033 301.906 25.3033H321.49C326.863 25.3033 331.196 29.636 331.196 35.0087V44.1941C331.196 44.714 331.023 45.0607 330.676 45.4073L325.65 49.2201L331.716 54.0728C332.062 54.4194 332.236 54.766 332.236 55.286V64.9913Z" fill="white"/>
<path d="M320.451 43.5009V36.3952C320.451 35.5286 319.757 34.8354 318.891 34.8354H311.958V45.0607H318.891C319.757 45.0607 320.451 44.3674 320.451 43.5009ZM392.028 34.662H383.189C382.842 34.662 382.496 35.0087 382.496 35.3553V65.1646C382.496 65.5113 382.842 65.8579 383.189 65.8579H392.028C392.374 65.8579 392.721 65.5113 392.721 65.1646V35.182C392.548 34.8354 392.374 34.662 392.028 34.662Z" fill="white"/>
<path d="M355.286 0V100H420.277V0H355.286ZM403.466 34.662V65.6846C403.466 71.0572 399.133 75.5633 393.588 75.5633H381.629C376.256 75.5633 371.75 71.2305 371.75 65.6846V34.662C371.75 29.2894 376.083 24.7834 381.629 24.7834H393.588C398.96 24.7834 403.466 29.2894 403.466 34.662ZM426.17 0V100H491.161V0H426.17ZM474.697 74.1768C474.697 74.5234 474.35 74.87 474.003 74.87H464.645C464.298 74.87 464.125 74.6967 463.951 74.3501L458.579 56.8458L453.206 74.3501C453.206 74.6967 452.86 74.87 452.513 74.87H443.154C442.808 74.87 442.461 74.5234 442.461 74.1768V63.9515C442.461 63.7782 442.461 63.7782 442.634 63.6049L450.78 50.0867L442.981 36.2218V25.9965C442.981 25.6499 443.328 25.3033 443.674 25.3033H453.206C453.553 25.3033 453.726 25.4766 453.899 25.8232L458.579 42.6343L463.258 25.8232C463.258 25.4766 463.605 25.3033 463.951 25.3033H473.484C473.83 25.3033 474.177 25.6499 474.177 25.9965V36.2218L466.378 50.0867L474.523 63.6049C474.523 63.7782 474.697 63.7782 474.697 63.9515V74.1768ZM71.0572 0V100H136.049V0H71.0572ZM117.331 74.0035C117.331 74.3501 116.984 74.6967 116.638 74.6967H91.3345C90.9879 74.6967 90.6412 74.3501 90.6412 74.0035V25.9965C90.6412 25.6499 90.9879 25.3033 91.3345 25.3033H116.464C116.811 25.3033 117.158 25.6499 117.158 25.9965V34.4887C117.158 34.8354 116.811 35.182 116.464 35.182H101.56V44.8873H115.771C116.118 44.8873 116.464 45.234 116.464 45.5806V53.7262C116.464 54.0728 116.118 54.4194 115.771 54.4194H101.56V64.9913H116.984C117.331 64.9913 117.678 65.338 117.678 65.6846V74.0035H117.331ZM142.114 0V100H207.106V0H142.114ZM190.295 40.9012C190.295 41.2478 189.948 41.5945 189.601 41.5945H180.243C179.896 41.5945 179.549 41.2478 179.549 40.9012V35.182C179.549 34.8354 179.203 34.4887 178.856 34.4887H170.017C169.671 34.4887 169.324 34.8354 169.324 35.182V64.9913C169.324 65.338 169.671 65.6846 170.017 65.6846H178.856C179.203 65.6846 179.549 65.338 179.549 64.9913V57.0191H174.87C174.523 57.0191 174.177 56.6724 174.177 56.3258V48.1802C174.177 47.8336 174.523 47.487 174.87 47.487H189.601C189.948 47.487 190.295 47.8336 190.295 48.1802V74.1768C190.295 74.5234 189.948 74.87 189.601 74.87H181.109C180.763 74.87 180.416 74.6967 180.416 74.3501L180.069 70.7106L176.256 75.3899C176.083 75.5633 175.91 75.5633 175.737 75.5633H168.631C163.258 75.5633 158.752 71.2305 158.752 65.6846V34.662C158.752 29.2894 163.085 24.7834 168.631 24.7834H180.589C185.962 24.7834 190.468 29.1161 190.468 34.662V40.9012H190.295Z" fill="white"/>
</g>
<defs>
<clipPath id="clip0_1_64">
<rect width="491.334" height="100" fill="white"/>
</clipPath>
</defs>
</svg>
